<?xml version="1.0" encoding="utf-8"?>
<!-- Generator: Adobe Illustrator 16.0.0, SVG Export Plug-In . SVG Version: 6.00 Build 0)  -->
<!DOCTYPE svg PUBLIC "-//W3C//DTD SVG 1.1//EN" "http://www.w3.org/Graphics/SVG/1.1/DTD/svg11.dtd">
<svg version="1.1" id="Layer_1" xmlns="http://www.w3.org/2000/svg" xmlns:xlink="http://www.w3.org/1999/xlink" x="0px" y="0px"
	 width="640px" height="400px" viewBox="0 0 640 400" enable-background="new 0 0 640 400" xml:space="preserve">
<path fill="#333333" d="M154.732,155.073v61.462c0,4.098-2.049,6.146-6.146,6.146H74.832c-4.098,0-6.146-2.049-6.146-6.146v-61.462
	c0-4.097,2.049-6.146,6.146-6.146h73.755C152.684,148.928,154.732,150.977,154.732,155.073z M74.832,155.073v6.146h6.146v-6.146
	H74.832z M148.587,216.535v-49.169H74.832v49.169H148.587z M87.124,155.073v6.146h6.146v-6.146H87.124z M99.417,155.073v6.146h6.146
	v-6.146H99.417z M148.587,161.22v-6.146h-36.878v6.146H148.587z"/>
<path fill="#333333" d="M547.844,147.506c3.646,0,5.471,1.824,5.471,5.472v10.942c0,3.647-1.824,5.471-5.471,5.471h-54.713
	c-3.646,0-5.471-1.823-5.471-5.471v-10.942c0-3.647,1.824-5.472,5.471-5.472H547.844z M547.844,174.862
	c3.646,0,5.471,1.824,5.471,5.472v10.942c0,3.647-1.824,5.472-5.471,5.472h-54.713c-3.646,0-5.471-1.824-5.471-5.472v-10.942
	c0-3.647,1.824-5.472,5.471-5.472H547.844z M547.844,202.219c3.646,0,5.471,1.824,5.471,5.47v10.943
	c0,3.647-1.824,5.472-5.471,5.472h-54.713c-3.646,0-5.471-1.824-5.471-5.472v-10.943c0-3.646,1.824-5.47,5.471-5.47H547.844z
	 M498.604,163.92v-10.942h-5.473v10.942H498.604z M498.604,191.276v-10.942h-5.473v10.942H498.604z M498.604,218.632v-10.943h-5.473
	v10.943H498.604z M509.545,163.92v-10.942h-5.471v10.942H509.545z M509.545,191.276v-10.942h-5.471v10.942H509.545z
	 M509.545,218.632v-10.943h-5.471v10.943H509.545z M520.488,163.92v-10.942h-5.473v10.942H520.488z M520.488,191.276v-10.942h-5.473
	v10.942H520.488z M520.488,218.632v-10.943h-5.473v10.943H520.488z M531.43,163.92v-10.942h-5.471v10.942H531.43z M531.43,191.276
	v-10.942h-5.471v10.942H531.43z M531.43,218.632v-10.943h-5.471v10.943H531.43z M547.844,158.448v-5.471h-5.471v5.471H547.844z"/>
<path fill="#333333" d="M496.399,248.619c-0.931-1.37-3.272-1.727-4.646-0.796C460.629,268.958,415,283.548,364,289.203v-20.731
	L344.857,249h-42.045c-3.738,0-5.812,1.72-5.812,5.457v36.89c-50-2.312-95.62-12.981-131.443-30.676l6.033-10.327l-29.889-0.039
	l14.934,25.928l5.903-10.359C199.211,284.065,246,295.018,297,297.352v24.378c0,3.737,2.074,5.271,5.812,5.271h56.059
	c3.738,0,5.129-1.533,5.129-5.271v-26.494c52-5.723,99.098-20.702,131.125-42.449C496.495,251.855,497.331,249.99,496.399,248.619z
	 M359,322h-56v-68h39.055L359,271.275V322z M339.25,276.881l14.016,14.015l-14.016,14.016l-2.803-5.605l8.41-8.41l-8.41-8.408
	L339.25,276.881z M325.236,282.487l-8.41,8.408l8.41,8.41l-2.803,5.605l-14.016-14.016l14.016-14.015L325.236,282.487z"/>
<text transform="matrix(1 0 0 1 310.4263 344.8047)" fill="#6A3089" font-family="'SourceSansPro-Black'" font-size="16">HTML</text>
<path fill="#333333" d="M493.916,133.305l-14.92-25.928l-6.479,10.359C442.313,102.754,405,92.688,364,88.296v-7.316L344.857,61
	h-42.045c-3.738,0-5.812,2.228-5.812,5.965v19.357c-62,3.057-119.906,19.199-157.165,44.5c-1.371,0.931-1.625,2.796-0.694,4.167
	c0.581,0.854,1.576,1.315,2.537,1.315c0.58,0,0.987-0.168,1.502-0.519C179.511,111.117,237,95.36,297,92.329v8.271
	c0,3.737,2.074,5.399,5.812,5.399h56.059c3.738,0,5.129-1.662,5.129-5.399v-6.275c40,4.331,76.142,14.11,105.505,28.613
	l-5.741,10.328L493.916,133.305z M359,101h-56V67h39.055L359,83.783V101z M311.964,84.476c0-4.83,3.007-7.509,6.718-7.509
	c1.934,0,3.316,0.878,4.26,1.844l-2.062,2.328c-0.594-0.571-1.164-0.923-2.197-0.923c-1.559,0-2.832,1.537-2.832,4.128
	c0,2.679,1.065,4.172,3.106,4.172c0.352,0,1.044-0.088,1.044-0.263V86h-2v-3h5v7.009c-1,0.879-2.62,1.757-4.442,1.757
	C314.891,91.766,311.964,89.351,311.964,84.476z M326,77h10v3h-6v3h5v3h-5v2h6v4h-10V77z M342,80h-4v-3h8.807l3.203,3H346v12h-4V80z
	"/>
<g>
	<text transform="matrix(1 0 0 1 311.6401 125.0923)" fill="#6A3089" font-family="'SourceSansPro-Black'" font-size="16">HTTP</text>
</g>
<text transform="matrix(1 0 0 1 97.0527 196.6621)" fill="#6A3089" font-family="'SourceSansPro-Black'" font-size="16">URL</text>
<text transform="matrix(1 0 0 1 84.0532 237.4668)" fill="#333333" font-family="'SourceSansPro-Regular'" font-size="16">Browser</text>
<text transform="matrix(1 0 0 1 498.9922 241.2266)" fill="#333333" font-family="'SourceSansPro-Regular'" font-size="16">Server</text>
</svg>
